<svg width="17" height="15" viewBox="0 0 17 15" fill="none" xmlns="http://www.w3.org/2000/svg">
<path d="M5.62359 13.4662C5.4244 13.2904 5.3125 13.052 5.3125 12.8034C5.3125 12.5548 5.4244 12.3164 5.62359 12.1406L10.883 7.49999L5.62359 2.85936C5.43004 2.68255 5.32295 2.44573 5.32537 2.19992C5.32779 1.95411 5.43953 1.71898 5.63653 1.54516C5.83352 1.37134 6.10001 1.27274 6.3786 1.27061C6.65718 1.26847 6.92557 1.36296 7.12596 1.53374L13.1365 6.83717C13.3357 7.01298 13.4476 7.25139 13.4476 7.49999C13.4476 7.74858 13.3357 7.98699 13.1365 8.1628L7.12596 13.4662C6.92671 13.642 6.65651 13.7407 6.37477 13.7407C6.09304 13.7407 5.82283 13.642 5.62359 13.4662Z" fill="black"/>
</svg>
