<svg width="55" height="55" viewBox="0 0 55 55" fill="none" xmlns="http://www.w3.org/2000/svg">
<path d="M48.0176 24.8145C49.6773 24.8145 50.3702 22.6821 49.022 21.6992L28.5098 6.77832C28.2169 6.5637 27.8632 6.448 27.5 6.448C27.1369 6.448 26.7832 6.5637 26.4903 6.77832L5.97808 21.6992C4.62993 22.6768 5.3228 24.8145 6.98784 24.8145H10.3125V44.9023H6.44536C6.20903 44.9023 6.01567 45.0957 6.01567 45.332V48.125C6.01567 48.3613 6.20903 48.5547 6.44536 48.5547H48.5547C48.7911 48.5547 48.9844 48.3613 48.9844 48.125V45.332C48.9844 45.0957 48.7911 44.9023 48.5547 44.9023H44.6875V24.8145H48.0176ZM20.4639 44.9023H14.1797V24.8145H20.4639V44.9023ZM30.6153 44.9023H24.3311V24.8145H30.6153V44.9023ZM40.8204 44.9023H34.4825V24.8145H40.8204V44.9023Z" fill="black"/>
</svg>
