<svg width="55" height="55" viewBox="0 0 55 55" fill="none" xmlns="http://www.w3.org/2000/svg">
<path d="M0 1.71875C0 1.26291 0.181082 0.825738 0.50341 0.50341C0.825738 0.181082 1.26291 0 1.71875 0L53.2812 0C53.7371 0 54.1743 0.181082 54.4966 0.50341C54.8189 0.825738 55 1.26291 55 1.71875V12.0312C55 12.4871 54.8189 12.9243 54.4966 13.2466C54.1743 13.5689 53.7371 13.75 53.2812 13.75H48.125V20.625H53.2812C53.7371 20.625 54.1743 20.8061 54.4966 21.1284C54.8189 21.4507 55 21.8879 55 22.3438V32.6562C55 33.1121 54.8189 33.5493 54.4966 33.8716C54.1743 34.1939 53.7371 34.375 53.2812 34.375H48.125V41.25H53.2812C53.7371 41.25 54.1743 41.4311 54.4966 41.7534C54.8189 42.0757 55 42.5129 55 42.9688V53.2812C55 53.7371 54.8189 54.1743 54.4966 54.4966C54.1743 54.8189 53.7371 55 53.2812 55H1.71875C1.26291 55 0.825738 54.8189 0.50341 54.4966C0.181082 54.1743 0 53.7371 0 53.2812V42.9688C0 42.5129 0.181082 42.0757 0.50341 41.7534C0.825738 41.4311 1.26291 41.25 1.71875 41.25H6.875V34.375H1.71875C1.26291 34.375 0.825738 34.1939 0.50341 33.8716C0.181082 33.5493 0 33.1121 0 32.6562V22.3438C0 21.8879 0.181082 21.4507 0.50341 21.1284C0.825738 20.8061 1.26291 20.625 1.71875 20.625H6.875V13.75H1.71875C1.26291 13.75 0.825738 13.5689 0.50341 13.2466C0.181082 12.9243 0 12.4871 0 12.0312V1.71875ZM10.3125 13.75V20.625H25.7812V13.75H10.3125ZM29.2188 13.75V20.625H44.6875V13.75H29.2188ZM10.3125 34.375V41.25H25.7812V34.375H10.3125ZM29.2188 34.375V41.25H44.6875V34.375H29.2188ZM3.4375 3.4375V10.3125H15.4688V3.4375H3.4375ZM18.9062 3.4375V10.3125H36.0938V3.4375H18.9062ZM39.5312 3.4375V10.3125H51.5625V3.4375H39.5312ZM3.4375 24.0625V30.9375H15.4688V24.0625H3.4375ZM18.9062 24.0625V30.9375H36.0938V24.0625H18.9062ZM39.5312 24.0625V30.9375H51.5625V24.0625H39.5312ZM3.4375 44.6875V51.5625H15.4688V44.6875H3.4375ZM18.9062 44.6875V51.5625H36.0938V44.6875H18.9062ZM39.5312 44.6875V51.5625H51.5625V44.6875H39.5312Z" fill="white"/>
</svg>
