<svg width="55" height="55" viewBox="0 0 55 55" fill="none" xmlns="http://www.w3.org/2000/svg">
<path d="M16.2077 22.4881L11.4914 27.2044C9.55729 29.1385 8.4707 31.7617 8.4707 34.497C8.4707 37.2323 9.55729 39.8555 11.4914 41.7897C13.4256 43.7238 16.0488 44.8104 18.7841 44.8104C21.5194 44.8104 24.1426 43.7238 26.0767 41.7897L32.3605 35.5025C33.5268 34.336 34.3963 32.9067 34.896 31.3347C35.3956 29.7626 35.5109 28.0936 35.232 26.4678C34.9532 24.842 34.2884 23.3068 33.2935 21.9911C32.2986 20.6753 31.0026 19.6175 29.5142 18.9062L27.4999 20.9206C27.2954 21.1255 27.1175 21.3553 26.9705 21.6047C28.1204 21.9353 29.1642 22.5602 29.9986 23.4178C30.8329 24.2754 31.4291 25.3359 31.728 26.4945C32.0269 27.653 32.0183 28.8696 31.703 30.0238C31.3877 31.178 30.7766 32.2299 29.9302 33.0756L23.6499 39.3594C22.3598 40.6494 20.6102 41.3741 18.7858 41.3741C16.9614 41.3741 15.2118 40.6494 13.9217 39.3594C12.6317 38.0693 11.907 36.3197 11.907 34.4953C11.907 32.6709 12.6317 30.9213 13.9217 29.6312L16.6477 26.9087C16.2631 25.4675 16.1145 23.9734 16.2077 22.4847V22.4881Z" fill="white"/>
<path d="M22.6392 16.06C21.4729 17.2265 20.6034 18.6557 20.1038 20.2278C19.6041 21.7999 19.4889 23.4688 19.7677 25.0947C20.0465 26.7205 20.7113 28.2557 21.7062 29.5714C22.7011 30.8871 23.9971 31.945 25.4855 32.6562L28.1495 29.9887C26.9841 29.6761 25.9214 29.0622 25.0683 28.2088C24.2152 27.3554 23.6018 26.2924 23.2896 25.1268C22.9775 23.9612 22.9777 22.7339 23.2901 21.5684C23.6025 20.4029 24.2162 19.3401 25.0695 18.4869L31.3499 12.2031C32.6399 10.9131 34.3895 10.1884 36.2139 10.1884C38.0383 10.1884 39.788 10.9131 41.078 12.2031C42.368 13.4931 43.0927 15.2428 43.0927 17.0672C43.0927 18.8916 42.368 20.6412 41.078 21.9312L38.352 24.6537C38.737 26.0975 38.8849 27.5928 38.792 29.0778L43.5083 24.3616C45.4424 22.4274 46.529 19.8042 46.529 17.0689C46.529 14.3336 45.4424 11.7104 43.5083 9.77624C41.5742 7.84211 38.9509 6.75552 36.2156 6.75552C33.4804 6.75552 30.8571 7.84211 28.923 9.77624L22.6392 16.06Z" fill="white"/>
</svg>
