<svg width="19" height="16" viewBox="0 0 19 16" fill="none" xmlns="http://www.w3.org/2000/svg">
<path d="M1.9429 0.486943C2.16559 0.271351 2.46758 0.150238 2.78246 0.150238C3.09734 0.150238 3.39933 0.271351 3.62202 0.486943L9.50015 6.17944L15.3783 0.486943C15.6022 0.277461 15.9022 0.161547 16.2136 0.164167C16.5249 0.166787 16.8228 0.287732 17.0429 0.500951C17.2631 0.71417 17.388 1.0026 17.3907 1.30413C17.3934 1.60566 17.2737 1.89615 17.0574 2.11304L10.3397 8.61859C10.117 8.83418 9.81503 8.9553 9.50015 8.9553C9.18527 8.9553 8.88328 8.83418 8.66059 8.61859L1.9429 2.11304C1.72028 1.89739 1.59521 1.60493 1.59521 1.29999C1.59521 0.995054 1.72028 0.702599 1.9429 0.486943Z" fill="black"/>
<path d="M17.0573 15.513C16.8346 15.7286 16.5327 15.8497 16.2178 15.8497C15.9029 15.8497 15.6009 15.7286 15.3782 15.513L9.50009 9.82054L3.62196 15.513C3.39799 15.7225 3.09803 15.8384 2.78667 15.8358C2.47531 15.8332 2.17747 15.7123 1.9573 15.499C1.73713 15.2858 1.61224 14.9974 1.60954 14.6959C1.60683 14.3943 1.72652 14.1038 1.94284 13.8869L8.66052 7.38139C8.88321 7.1658 9.1852 7.04469 9.50009 7.04469C9.81497 7.04469 10.117 7.1658 10.3396 7.38139L17.0573 13.8869C17.28 14.1026 17.405 14.3951 17.405 14.7C17.405 15.0049 17.28 15.2974 17.0573 15.513Z" fill="black"/>
</svg>
