<svg width="55" height="55" viewBox="0 0 55 55" fill="none" xmlns="http://www.w3.org/2000/svg">
<path d="M44.8003 25.2012C43.7576 22.8543 42.2417 20.7479 40.3477 19.0137L38.7847 17.5796C38.7316 17.5322 38.6677 17.4986 38.5986 17.4817C38.5296 17.4648 38.4574 17.4651 38.3884 17.4826C38.3195 17.5001 38.2559 17.5343 38.2033 17.5821C38.1506 17.6299 38.1105 17.6899 38.0864 17.7568L37.3882 19.7603C36.9531 21.0171 36.1528 22.3008 35.0195 23.563C34.9443 23.6436 34.8584 23.665 34.7993 23.6704C34.7402 23.6758 34.6489 23.665 34.5684 23.5898C34.4932 23.5254 34.4556 23.4287 34.4609 23.332C34.6597 20.0986 33.6929 16.4517 31.5767 12.4824C29.8257 9.18457 27.3926 6.61181 24.3525 4.81787L22.1343 3.51269C21.8442 3.34082 21.4736 3.5664 21.4897 3.90478L21.6079 6.48291C21.6885 8.24463 21.4844 9.80224 21.001 11.0967C20.4102 12.6811 19.5615 14.1528 18.4766 15.4741C17.7215 16.3924 16.8657 17.2229 15.9253 17.9502C13.6603 19.6913 11.8186 21.9223 10.5381 24.4761C9.2607 27.0521 8.59531 29.8883 8.59375 32.7637C8.59375 35.2988 9.09326 37.7534 10.0815 40.0684C11.0358 42.2972 12.4129 44.32 14.1367 46.0249C15.877 47.7436 17.8965 49.0972 20.147 50.0371C22.478 51.0146 24.9487 51.5088 27.5 51.5088C30.0513 51.5088 32.522 51.0146 34.853 50.0425C37.098 49.108 39.1394 47.7453 40.8633 46.0303C42.6035 44.3115 43.9678 42.3027 44.9185 40.0737C45.9052 37.7651 46.4115 35.2797 46.4062 32.769C46.4062 30.1479 45.8691 27.602 44.8003 25.2012V25.2012ZM38.2959 43.4253C35.4116 46.2827 31.582 47.8511 27.5 47.8511C23.418 47.8511 19.5884 46.2827 16.7041 43.4253C13.8306 40.5732 12.2461 36.792 12.2461 32.769C12.2461 30.4326 12.7725 28.1929 13.8091 26.1089C14.8188 24.0732 16.3228 22.2524 18.1489 20.8506C19.3136 19.96 20.3699 18.9361 21.2964 17.7998C22.6392 16.1616 23.6919 14.3354 24.4224 12.375C24.722 11.5663 24.9397 10.7296 25.0723 9.87744C26.3667 11.0698 27.4517 12.5093 28.3594 14.1958C30.1533 17.5581 30.9805 20.5498 30.8193 23.0957C30.7808 23.6953 30.8788 24.2958 31.1058 24.8522C31.3328 25.4085 31.6829 25.9061 32.1299 26.3076C32.5172 26.6575 32.9703 26.927 33.4626 27.1003C33.955 27.2737 34.4769 27.3474 34.998 27.3174C36.0562 27.2637 37.0283 26.7964 37.7373 26.0068C38.4517 25.2065 39.0693 24.3901 39.585 23.5576C40.3369 24.519 40.9653 25.5664 41.4648 26.6943C42.3188 28.6172 42.7539 30.6636 42.7539 32.769C42.7539 36.792 41.1694 40.5786 38.2959 43.4253Z" fill="white"/>
</svg>
