<svg width="55" height="55" viewBox="0 0 55 55" fill="none" xmlns="http://www.w3.org/2000/svg">
<path d="M36.6665 4.58331C30.3415 4.58331 25.2082 9.71665 25.2082 16.0416C25.2082 22.3666 30.3415 27.5 36.6665 27.5C42.9915 27.5 48.1248 22.3666 48.1248 16.0416C48.1248 9.71665 42.9915 4.58331 36.6665 4.58331ZM36.6665 22.9166C32.8623 22.9166 29.7915 19.8458 29.7915 16.0416C29.7915 12.2375 32.8623 9.16665 36.6665 9.16665C40.4707 9.16665 43.5415 12.2375 43.5415 16.0416C43.5415 19.8458 40.4707 22.9166 36.6665 22.9166ZM43.5415 36.6666H38.9582C38.9582 33.9166 37.2394 31.4416 34.6728 30.4791L20.5561 25.2083H2.2915V50.4166H16.0415V47.1166L32.0832 51.5625L50.4165 45.8333V43.5416C50.4165 39.7375 47.3457 36.6666 43.5415 36.6666ZM11.4582 45.8333H6.87484V29.7916H11.4582V45.8333ZM32.0144 46.7729L16.0415 42.3958V29.7916H19.7311L33.0686 34.7646C33.8478 35.0625 34.3748 35.8187 34.3748 36.6666C34.3748 36.6666 29.7915 36.5521 29.104 36.3229L23.6498 34.5125L22.2061 38.8666L27.6603 40.6771C28.829 41.0666 30.0436 41.25 31.2811 41.25H43.5415C44.4353 41.25 45.2373 41.8 45.604 42.5562L32.0144 46.7729Z" fill="black"/>
</svg>
