<svg width="103" height="61" viewBox="0 0 103 61" fill="none" xmlns="http://www.w3.org/2000/svg">
<path d="M1.083 55V41.7H4.769L11.533 49.794H9.823V41.7H14.193V55H10.507L3.743 46.906H5.453V55H1.083ZM22.1865 55.285C20.9452 55.285 19.8368 55.038 18.8615 54.544C17.8862 54.0373 17.1198 53.347 16.5625 52.473C16.0052 51.5863 15.7265 50.5857 15.7265 49.471C15.7265 48.3437 16.0052 47.343 16.5625 46.469C17.1198 45.595 17.8862 44.911 18.8615 44.417C19.8368 43.9103 20.9452 43.657 22.1865 43.657C23.4278 43.657 24.5298 43.9103 25.4925 44.417C26.4678 44.911 27.2342 45.595 27.7915 46.469C28.3488 47.343 28.6275 48.3437 28.6275 49.471C28.6275 50.5857 28.3488 51.5863 27.7915 52.473C27.2342 53.347 26.4678 54.0373 25.4925 54.544C24.5298 55.038 23.4278 55.285 22.1865 55.285ZM22.1865 51.865C22.5918 51.865 22.9465 51.7637 23.2505 51.561C23.5545 51.3583 23.7888 51.0797 23.9535 50.725C24.1308 50.3577 24.2195 49.9397 24.2195 49.471C24.2195 49.0023 24.1308 48.5907 23.9535 48.236C23.7888 47.8687 23.5545 47.5837 23.2505 47.381C22.9465 47.1783 22.5918 47.077 22.1865 47.077C21.7938 47.077 21.4392 47.1783 21.1225 47.381C20.8185 47.5837 20.5778 47.8687 20.4005 48.236C20.2232 48.5907 20.1345 49.0023 20.1345 49.471C20.1345 49.9397 20.2232 50.3577 20.4005 50.725C20.5778 51.0797 20.8185 51.3583 21.1225 51.561C21.4392 51.7637 21.7938 51.865 22.1865 51.865ZM32.9813 55L28.2693 43.942H32.8863L36.5723 53.195H33.8743L37.6933 43.942H41.9683L37.2753 55H32.9813Z" fill="#2B74B9"/>
<path d="M47.6602 55.304C46.5455 55.304 45.4688 55.1773 44.4302 54.924C43.3915 54.6707 42.5365 54.3413 41.8652 53.936L43.3092 50.668C43.9425 51.0353 44.6455 51.333 45.4182 51.561C46.2035 51.7763 46.9635 51.884 47.6982 51.884C48.1288 51.884 48.4645 51.8587 48.7052 51.808C48.9585 51.7447 49.1422 51.6623 49.2562 51.561C49.3702 51.447 49.4272 51.314 49.4272 51.162C49.4272 50.9213 49.2942 50.7313 49.0282 50.592C48.7622 50.4527 48.4075 50.3387 47.9642 50.25C47.5335 50.1487 47.0585 50.0473 46.5392 49.946C46.0198 49.832 45.4942 49.6863 44.9622 49.509C44.4428 49.3317 43.9615 49.0973 43.5182 48.806C43.0875 48.5147 42.7392 48.1347 42.4732 47.666C42.2072 47.1847 42.0742 46.5893 42.0742 45.88C42.0742 45.0567 42.3022 44.3093 42.7582 43.638C43.2268 42.954 43.9172 42.4093 44.8292 42.004C45.7538 41.5987 46.9002 41.396 48.2682 41.396C49.1675 41.396 50.0542 41.491 50.9282 41.681C51.8022 41.871 52.5875 42.1623 53.2842 42.555L51.9352 45.804C51.2765 45.4747 50.6368 45.2277 50.0162 45.063C49.4082 44.8983 48.8128 44.816 48.2302 44.816C47.7995 44.816 47.4575 44.854 47.2042 44.93C46.9508 45.006 46.7672 45.1073 46.6532 45.234C46.5518 45.3607 46.5012 45.5 46.5012 45.652C46.5012 45.88 46.6342 46.0637 46.9002 46.203C47.1662 46.3297 47.5145 46.4373 47.9452 46.526C48.3885 46.6147 48.8698 46.7097 49.3892 46.811C49.9212 46.9123 50.4468 47.0517 50.9662 47.229C51.4855 47.4063 51.9605 47.6407 52.3912 47.932C52.8345 48.2233 53.1892 48.6033 53.4552 49.072C53.7212 49.5407 53.8542 50.1233 53.8542 50.82C53.8542 51.6307 53.6198 52.378 53.1512 53.062C52.6952 53.7333 52.0112 54.278 51.0992 54.696C50.1872 55.1013 49.0408 55.304 47.6602 55.304ZM56.9454 55V47.172H53.7914V43.942H64.4694V47.172H61.3154V55H56.9454ZM65.5402 55V43.942H71.2212C72.2852 43.942 73.2099 44.1193 73.9952 44.474C74.7805 44.816 75.3885 45.3037 75.8192 45.937C76.2499 46.5703 76.4652 47.324 76.4652 48.198C76.4652 49.0593 76.2499 49.8067 75.8192 50.44C75.3885 51.0607 74.7805 51.542 73.9952 51.884C73.2099 52.2133 72.2852 52.378 71.2212 52.378H67.9532L69.9102 50.63V55H65.5402ZM72.0572 55L69.3212 50.972H73.9382L76.7122 55H72.0572ZM69.9102 51.105L68.3332 49.243H70.8792C71.2972 49.243 71.6012 49.148 71.7912 48.958C71.9939 48.7553 72.0952 48.502 72.0952 48.198C72.0952 47.894 71.9939 47.647 71.7912 47.457C71.6012 47.2543 71.2972 47.153 70.8792 47.153H68.3332L69.9102 45.291V51.105ZM84.0107 55.285C82.7694 55.285 81.6611 55.038 80.6857 54.544C79.7104 54.0373 78.9441 53.347 78.3867 52.473C77.8294 51.5863 77.5507 50.5857 77.5507 49.471C77.5507 48.3437 77.8294 47.343 78.3867 46.469C78.9441 45.595 79.7104 44.911 80.6857 44.417C81.6611 43.9103 82.7694 43.657 84.0107 43.657C85.2521 43.657 86.3541 43.9103 87.3167 44.417C88.2921 44.911 89.0584 45.595 89.6157 46.469C90.1731 47.343 90.4517 48.3437 90.4517 49.471C90.4517 50.5857 90.1731 51.5863 89.6157 52.473C89.0584 53.347 88.2921 54.0373 87.3167 54.544C86.3541 55.038 85.2521 55.285 84.0107 55.285ZM84.0107 51.865C84.4161 51.865 84.7707 51.7637 85.0747 51.561C85.3787 51.3583 85.6131 51.0797 85.7777 50.725C85.9551 50.3577 86.0437 49.9397 86.0437 49.471C86.0437 49.0023 85.9551 48.5907 85.7777 48.236C85.6131 47.8687 85.3787 47.5837 85.0747 47.381C84.7707 47.1783 84.4161 47.077 84.0107 47.077C83.6181 47.077 83.2634 47.1783 82.9467 47.381C82.6427 47.5837 82.4021 47.8687 82.2247 48.236C82.0474 48.5907 81.9587 49.0023 81.9587 49.471C81.9587 49.9397 82.0474 50.3577 82.2247 50.725C82.4021 51.0797 82.6427 51.3583 82.9467 51.561C83.2634 51.7637 83.6181 51.865 84.0107 51.865ZM94.2002 55V50.041L94.9982 52.568L89.8112 43.942H94.4092L97.7342 49.566H95.3022L98.6272 43.942H102.959L97.7722 52.568L98.5702 50.041V55H94.2002Z" fill="black"/>
<path d="M66.9638 18.0398L46.4528 6.66173" stroke="#2B74B9" stroke-width="3" stroke-miterlimit="3.99393" stroke-linecap="round"/>
<path d="M24.0362 18.0398L45.4564 7.07808" stroke="black" stroke-width="3" stroke-miterlimit="3.99393" stroke-linecap="round"/>
<path d="M29.2339 36.1507L29.2339 17.8493" stroke="black" stroke-width="3" stroke-miterlimit="3.99393" stroke-linecap="round"/>
<path d="M34 7V13" stroke="black" stroke-width="3" stroke-linecap="round"/>
</svg>
