<svg width="19" height="19" viewBox="0 0 19 19" fill="none" xmlns="http://www.w3.org/2000/svg">
<path d="M12.071 12.7538L13.401 11.4238C13.5802 11.2469 13.8068 11.1258 14.0534 11.0752C14.3001 11.0246 14.5561 11.0467 14.7904 11.1388L16.4113 11.786C16.6481 11.8821 16.8512 12.0461 16.9949 12.2575C17.1386 12.4688 17.2165 12.7179 17.2188 12.9735V15.9422C17.2175 16.116 17.1809 16.2878 17.1114 16.4472C17.0419 16.6065 16.9409 16.7501 16.8144 16.8694C16.6879 16.9887 16.5386 17.0811 16.3755 17.1411C16.2123 17.2012 16.0387 17.2276 15.8651 17.2188C4.50666 16.5122 2.21478 6.89346 1.78134 3.21221C1.76122 3.03144 1.77961 2.84845 1.83529 2.67529C1.89096 2.50213 1.98267 2.34272 2.10438 2.20755C2.22609 2.07238 2.37505 1.96451 2.54144 1.89104C2.70783 1.81757 2.88789 1.78016 3.06978 1.78127H5.93759C6.19351 1.78203 6.44334 1.85933 6.65496 2.00324C6.86658 2.14714 7.03031 2.35106 7.12509 2.58877L7.77228 4.20971C7.86743 4.4431 7.89171 4.69934 7.84208 4.94644C7.79245 5.19354 7.67111 5.42054 7.49322 5.59909L6.16322 6.92909C6.16322 6.92909 6.92916 12.1125 12.071 12.7538Z" fill="black"/>
</svg>
