<svg width="55" height="55" viewBox="0 0 55 55" fill="none" xmlns="http://www.w3.org/2000/svg">
<path d="M30.1286 48.5764L33.9557 45.8997C38.8485 42.4745 42.6356 37.6961 44.8529 32.1503C47.0701 26.6046 47.6211 20.5324 46.4384 14.678C46.38 14.3896 46.2559 14.1184 46.0759 13.8855C45.8959 13.6526 45.6647 13.4643 45.4002 13.3351L27.5 4.58325L9.60211 13.3351C9.33721 13.464 9.10556 13.6522 8.92513 13.8851C8.7447 14.118 8.62034 14.3893 8.56169 14.678C7.37915 20.5326 7.9305 26.6049 10.1482 32.1507C12.3658 37.6965 16.1535 42.4748 21.0467 45.8997L24.8738 48.5764C25.644 49.1152 26.5612 49.4042 27.5012 49.4042C28.4411 49.4042 29.3584 49.1152 30.1286 48.5764V48.5764Z" stroke="white" stroke-width="3" stroke-linecap="round" stroke-linejoin="round"/>
</svg>
