<svg width="55" height="55" viewBox="0 0 55 55" fill="none" xmlns="http://www.w3.org/2000/svg">
<path d="M45.6593 23.7944C45.8328 23.3755 45.8781 22.9146 45.7896 22.47C45.7011 22.0253 45.4827 21.6169 45.162 21.2965L33.7036 9.83813L30.4632 13.0786L38.0097 20.625H9.16677V25.2083H43.5418C43.995 25.2085 44.4381 25.0742 44.815 24.8225C45.1919 24.5708 45.4857 24.213 45.6593 23.7944ZM9.34094 31.2056C9.16745 31.6245 9.12209 32.0854 9.21061 32.53C9.29913 32.9747 9.51755 33.3831 9.83823 33.7036L21.2966 45.1619L24.537 41.9215L16.9905 34.375H45.8334V29.7917H11.4584C11.0052 29.7913 10.562 29.9254 10.185 30.1771C9.80802 30.4288 9.51426 30.7868 9.34094 31.2056Z" fill="black"/>
</svg>
